<svg xmlns="http://www.w3.org/2000/svg" width="1920pt" height="463pt" viewBox="0 0 1920 463"><g fill="#e60000"><path d="M338.08 135.85c14.97-.88 29.99-.6 44.98-.4 3.67-.18 6.98 1.66 9.93 3.63 22.8 15.17 45.48 30.53 68.26 45.73 3.33 2.15 7.61 4.59 7.68 9.11.19 16.34-.01 32.69.09 49.03-.09 2.03.14 4.3-.98 6.11-1.07 1.63-3.23 1.59-4.87 2.24-3.4-.1-6.81-.04-10.2.27-.34.58-1.03 1.74-1.37 2.31 3.29 6.59 11.57 8.01 15.88 13.66 1.57 2.14 1.52 4.91 1.54 7.45-.08 22.01.04 44.03-.05 66.04.09 2.41-1.15 5.78-4.07 5.55-16.78.14-33.58.19-50.37-.05-3.36-2.46-2.83-6.89-3.02-10.56-.02-25.99-.01-51.99-.01-77.98-.05-11.37.28-22.77-.85-34.09-.49-3.92-3.33-7.01-6.59-8.99-12.29-8.44-24.78-16.58-37.23-24.77-1.78-1.13-3.78-1.77-5.75-2.44-6.07-.34-12.15-.47-18.21.05-5.81 1.1-11.56 2.61-17 4.97-13.01 5.9-24.15 16.36-29.55 29.72-6.26 14.75-4.42 32.43 4.47 45.72 5.76 9.21 14.74 15.85 24.33 20.68 1.64.7 3.31 1.37 4.97 2.08 1.23.47 2.46.91 3.7 1.38 2.7.59 5.38 1.31 8.07 1.97 9.74.87 19.72.73 29.1-2.37 1-.3 2-.61 3-.92.98-.44 1.96-.89 2.93-1.36 2.89-.32 6.64-1.06 8.32 2.02 7.36 11.07 14.52 22.28 21.84 33.39 1.34 2.11 3.01 4.44 2.35 7.11-1.69 2.6-4.86 3.45-7.5 4.73-1.68.64-3.37 1.27-5.03 1.96-.98.37-1.96.73-2.95 1.08-3.28 1.16-6.63 2.1-9.97 3.04-5.33 1.24-10.7 2.41-16.16 2.88-6.85 1.21-13.86.75-20.78.8-5.7.08-11.35-.79-16.95-1.74-4.19-.55-8.24-1.71-12.34-2.65-4.01-1.22-7.99-2.51-11.91-3.99-1.6-.64-3.2-1.3-4.78-1.98-24.09-10.39-44.77-29.11-56.36-52.77-9.07-18.31-12.06-39.55-8.34-59.65 4.29-23.86 17.81-45.7 36.6-60.9 9.05-7.45 19.22-13.49 29.98-18.13 1.39-.52 2.77-1.05 4.16-1.59 7.65-3.05 15.71-4.85 23.76-6.44 2.43-.14 4.86-.41 7.25-.94ZM488.2 135.51c25.57-.52 51.16-.08 76.74-.23h98.09c6.06.05 12.14-.2 18.19.35 2.19 1.12 4.46 2.19 6.27 3.91 14.44 13.56 26.03 30.82 30.32 50.37 3.07 12.84 2.35 26.12 2.1 39.18-.06 1.59-1 2.94-1.67 4.32-1.74.4-3.47.9-5.26.88-16.04.02-32.08-.08-48.12.04-2.74-.88-4.74-3.21-4.22-6.24.89-12.56-3.5-25.39-12-34.69-2.21-2.5-5.27-4.37-8.71-4.15-29.32.06-58.66.03-87.98.02-2.09 0-4.17.12-6.24.28-1.93 2.76-2.11 6.19-1.93 9.44.49 9.35.12 18.7-.02 28.05-.09 5.33 3.85 9.5 8.06 12.2 51.16 33.4 101.98 67.34 153 100.95 1.88 1.11 3.16 2.86 4.19 4.75l-2.98 1.55c-23.67.41-47.35.06-71.02.18-6.73 0-13.46.07-20.18-.3-3.88-1.69-7.49-3.89-11-6.24-18.61-11.74-36.96-23.88-55.62-35.55-.97-.06-1.93-.12-2.89-.17-2.43 4.23-.25 9.77-3.39 13.64-2.24.7-4.64.46-6.95.53-15.03-.12-30.07.14-45.09-.12-2.78.01-4.19-3.06-4.09-5.48-.14-12.33.02-24.66-.07-36.98-.22-3.31.22-7.2 3.83-8.43 4.87-.11 10.32 1.11 14.36-2.38-2.44-5.83-8.86-7.89-13.63-11.32-3.04-1.81-4.65-5.4-4.54-8.86-.01-34.34 0-68.67 0-103-.22-2.47.7-4.77 2.45-6.5ZM1081.54 135.51c23.83-.52 47.68-.12 71.52-.08 4.84-.21 9.17 2.56 12.41 5.93 12.61 11.33 21.6 26.4 26.37 42.61.72 1.74.2 3.56-.25 5.29-.63.28-1.87.85-2.5 1.14-30.04.05-60.08.01-90.12.02-6.18-.31-12.51.77-18.56-.8-.62-1.8-1.25-3.63-1.17-5.56.03-14.37-.04-28.73.03-43.09-.16-2.12 1.06-3.86 2.27-5.46ZM1491.7 135.54c17.86-.44 35.75-.38 53.61-.04 1.13 1.49 2.31 3.07 2.34 5.05.44 12.46-.34 24.98.37 37.42-.01 3.21 3.41 3.57 5.59 2.1 22.11-14.1 44.02-28.52 66.31-42.32 2.94-1.07 5.91-2.35 9.12-2.3 26.19-.23 52.37-.2 78.56-.13-.86 6.05-3.5 11.97-8.24 15.96-4.69 3.79-9.96 6.77-14.92 10.17-34.96 23.11-69.92 46.22-104.87 69.34-4.54 3.34-10 5.61-13.47 10.22 1.88 2.46 4.34 4.35 7 5.93 35.3 23.34 70.61 46.67 105.92 69.99 6.93 4.75 14.29 8.93 20.85 14.18 3.84 4.06 8.1 9.5 6.7 15.44-25.86.23-51.72.14-77.58.04-2.02.06-3.99-.22-5.96-.44-24.25-14.71-47.65-30.8-71.86-45.58-.39-.01-1.16-.04-1.55-.05-3.48 5.05-.61 11.48-3.06 16.9-1.46.55-2.91 1.26-4.49 1.14-15.39.01-30.78-.02-46.16.01-1.53-.14-3.33.23-4.49-.99-1.89-1.57-1.84-4.31-1.93-6.54.01-12.02.01-24.04 0-36.05-.07-2.17.6-4.24 1.21-6.28 5.51-2.74 12.56 1.13 17.25-3.59-3.3-7.03-12.26-8.26-16.88-14.09-1.45-2.03-1.58-4.63-1.59-7.03.05-33.98-.01-67.97.03-101.95-.17-2.42.69-4.65 2.19-6.51ZM89.03 138.09c5.57-1.32 11.21-2.39 16.93-2.75 5.29-.5 10.67-1.25 15.96-.23 6.47.19 12.83 1.36 19.15 2.71 2.65.73 5.25 1.6 7.9 2.31 2.4.87 4.79 1.79 7.19 2.68 24.15 10.07 44.35 29.29 55.29 53.09 9.86 21.14 12.34 45.59 7.11 68.31-7.1 32.09-30.35 59.93-60.42 73.04-1.65.69-3.31 1.35-4.95 2.04-7.48 2.76-15.22 4.72-23.1 5.95-3.34.3-6.71.3-10.01.92-3.05.17-6.11.18-9.16 0-5.62-.75-11.32-.85-16.87-2.19-2.4-.54-4.78-1.16-7.17-1.7-5.03-1.52-9.98-3.32-14.81-5.39a50.52 50.52 0 0 0-4.05-1.98c-23.06-11.55-41.61-31.86-50.95-55.92-8.89-22.73-9.53-48.55-1.92-71.73 9.26-28.5 31.34-52.36 58.9-64.06 1.68-.69 3.4-1.3 5.09-1.95 1.26-.47 2.53-.9 3.78-1.37 2.05-.57 4.08-1.17 6.11-1.78m11.04 12.04c-1.38.25-2.76.47-4.14.69-1.32.37-2.64.73-3.96 1.06-3.07.89-6.12 1.84-9.14 2.88-2.33 1.04-4.66 2.07-7.02 3.04-22.87 11.04-40.83 31.84-48 56.24-6.42 21.12-4.8 44.56 4.54 64.56 9 19.53 25.12 35.54 44.55 44.69 2.09.8 4.13 1.71 6.2 2.57 2 .7 4.02 1.36 6.03 2.02 5.13 1.63 10.45 2.45 15.75 3.36 11.06.94 22.26.43 33.06-2.26 2.32-.7 4.63-1.41 6.93-2.14 3.39-1.18 6.71-2.55 9.97-4.06 25.01-11.86 43.88-35.63 49.8-62.66 4.96-22.1 1.38-46.04-10.11-65.58-10.92-18.88-28.78-33.55-49.37-40.73-1.01-.32-2.01-.65-3-.99-2.09-.53-4.17-1.1-6.25-1.64-9.41-1.86-19.19-3.47-28.75-1.91-2.38.14-4.75.41-7.09.86ZM840.87 135.78c15.7-.68 31.46-.79 47.17-.08.99.39 2 .76 3.02 1.13 24.71 15.91 48.87 32.67 73.37 48.93 2.47 1.66 5.31 3.48 6.05 6.59.61 2.83.22 5.75.28 8.62-.02 14.36-.01 28.73.01 43.09-.08 1.63-.01 3.39-.86 4.85-.89 1.83-3.21 1.69-4.85 2.36-3.7.13-7.57-.5-11.11.76-.8 1.41.16 2.96.8 4.23 3.84 3.98 9.13 6.13 13.28 9.73 3.69 3.67 2.85 9.3 2.74 14.02-.04 20.01-.02 40.02-.01 60.03-.03 2.24-.15 5.15-2.45 6.31-2.42.46-4.91.3-7.34.34-14.85-.1-29.71.12-44.55-.13-1.52-1.5-3.12-3.25-2.88-5.57-.1-18.32 0-36.65-.04-54.97-.05-2.7-.78-5.34-.77-8.05.04-17.68.01-35.36.02-53.05.21-3.59-1.93-6.87-4.88-8.76-12.57-8.45-25.27-16.7-37.87-25.11-7.24-5.34-16.78-3.4-25.14-3.3-5.11.98-10.18 2.18-15.04 4.04-15.03 6.09-27.83 18.39-32.95 33.96-4.3 12.46-2.95 26.57 3.18 38.19 6.13 11.84 17.05 20.5 29.04 25.91 2.93 1.19 5.9 2.28 8.96 3.13 8.43 2.22 17.33 2.13 25.93 1.02 1.63-.4 3.3-.73 4.97-1 4.74-.99 9.09-3.82 14.02-3.68 2.59 0 4.14 2.38 5.43 4.29 5.99 9.33 12.1 18.59 18.14 27.88 1.71 2.77 3.84 5.37 4.8 8.53.55 4.21-4.55 5.27-7.45 6.76-9.24 3.91-18.92 6.62-28.77 8.44-2.36.17-4.7.5-7 .96-9.39.7-18.85.7-28.23-.01-12.27-1.52-24.36-4.56-35.78-9.32-31.98-13.26-58.29-41.66-65.42-75.97-4.64-21.4-1.57-44.33 8.4-63.81 10.63-21.28 29.06-37.98 50.03-48.82 2.96-1.42 5.95-2.79 9.01-4.01 4.16-1.75 8.48-3.08 12.8-4.37 7.2-1.95 14.55-3.16 21.94-4.09ZM1341.13 136.14c9.55-1.32 19.27-.67 28.9-.86 6 0 12-.04 18.01.23 4.31.18 7.78 3.11 11.29 5.31 23.35 15.58 46.68 31.21 69.93 46.96 4.96 3.42 3.56 10.03 3.74 15.18-.33 13.37.11 26.74-.02 40.12-.22 2.37.03 5.27-2 6.96-4.83 2.26-10.51.17-15.25 2.85 2.13 9.58 17.15 9.35 17.22 20.04.07 21.71-.08 43.4.05 65.11-.07 3.03-.02 8.33-4.14 8.52-16.8.2-33.62.17-50.42 0-2.39-1.77-3.28-4.61-3.17-7.49-.05-16.69-.03-33.38 0-50.07-1.08-21.61-.22-43.27-.57-64.89-.1-3.05-1.81-5.85-4.32-7.52-13.2-8.84-26.45-17.6-39.7-26.36-4.89-3.38-11.07-2.72-16.68-2.83-4.7-.12-9.33.71-13.89 1.74-2.78.79-5.53 1.64-8.24 2.61-16.07 6.51-29.68 20.13-33.96 37.19-4.52 16.81 1.19 35.54 13.51 47.65 5.17 5.46 11.58 9.63 18.43 12.69 1.69.67 3.38 1.31 5.09 2.01l2.09.6c12.21 3.94 25.72 3.84 37.94-.03.52-.15 1.55-.44 2.07-.59 3.08-1.66 6.54-2.32 10.02-1.77 5.34 6.33 9.22 13.71 13.91 20.51 3.79 6.05 7.98 11.87 11.53 18.07 1.39 2.05.77 4.92-1.43 6.11-4.14 2.43-8.74 3.94-13.21 5.62-1.32.44-2.59.88-3.87 1.35-5.54 1.68-11.2 2.93-16.88 4.06-2.36.16-4.7.5-6.99.96-9.39.7-18.85.7-28.23-.01-9.15-1.14-18.17-3.14-26.95-5.93-2.97-1.07-5.88-2.27-8.82-3.38-30.43-12.63-55.67-38.8-64.31-70.93-6.31-23.06-3.39-48.36 7.63-69.53 12.21-23.9 34.02-42.05 58.66-52.14 1.25-.49 2.48-1 3.75-1.51 3.01-1.01 6.04-1.96 9.08-2.93 4.61-1.14 9.27-2.07 13.93-3.05 2.08-.18 4.17-.37 6.27-.63Z" opacity="1.00"/><path d="M1778.13 136.14c11.2-1.41 22.57-.63 33.85-.86 6.03.26 12.3-.63 18.12 1.44 25.25 16.4 50.03 33.52 75.12 50.17 2.8 1.65 4.83 4.68 4.76 8.01.07 16.05-.03 32.11.04 48.16-.05 2.4.09 5.35-2.02 6.99-1.31.53-2.65.82-3.96 1.21-3.72.44-8.43-1.23-11.32 1.74-.6 3.42 3.34 5.07 5.57 6.86 4.38 3.31 11.19 5.68 11.64 12.04.17 22.7.01 45.42.07 68.13.19 2.28-.78 4.35-1.83 6.3-10.68.74-21.41.15-32.1.34-6.38-.1-12.76.19-19.12-.13-3.38.02-4.48-3.9-4.43-6.65-.06-13.97 0-27.93-.02-41.9-.08-6.33.36-12.7-.69-18.98-.12-18.37-.1-36.75.03-55.11-.1-3.55-2.64-6.37-5.51-8.14-13.74-9-27.25-18.36-41.17-27.06-1.08-.33-2.15-.63-3.2-.91-8-.64-16.11-.73-23.96 1.07-3.09.85-6.12 1.87-9.12 2.95-15.62 6.3-28.83 19.38-33.49 35.78-4.78 15.74-.35 33.41 10.18 45.84 5.53 6.64 12.68 11.82 20.5 15.46 11.75 5.4 25.06 7.17 37.8 4.98 2.74-.4 5.44-1.16 8.1-2 .52-.14 1.57-.44 2.09-.59 3.1-1.64 6.57-2.26 10.07-1.84 4.98 5.7 8.41 12.52 12.73 18.71 3.93 6.08 7.92 12.12 11.82 18.23 1.05 1.9 2.61 4.4 1.01 6.46-1.37 1.74-3.64 2.43-5.52 3.45-3.41 1.32-6.8 2.69-10.2 4.01-.51.11-1.53.35-2.04.46-5.77 2.11-11.83 3.19-17.81 4.46-1.8.19-3.57.39-5.32.6-12.25 1.49-24.76 1.15-36.96-.63-3.6-.71-7.16-1.5-10.72-2.27-6.12-1.69-12.17-3.61-18-6.07-17.45-7.5-33.38-18.94-45.17-33.91-10.87-13.49-18.44-29.75-21.11-46.9-3.33-20.92.49-42.88 10.69-61.45 12.07-22.64 32.89-39.81 56.32-49.77 5.89-2.36 11.92-4.43 18.1-5.95 5.33-1.21 10.69-2.36 16.18-2.73ZM109.01 172.74c6.03-.71 12.32-1.04 18.16.94 10.08 3.87 17.7 13.43 18.78 24.23 1.83 13.18-6.81 26.81-19.44 30.9-1.29 3.63-.56 7.49-.52 11.24.07 7.64-.08 15.29.09 22.93 5.16-5.48 10.79-10.52 15.83-16.11-.91-5.16-2.43-10.38-1.27-15.66 1.56-10.54 9.39-19.53 19.37-23.08 4.29-1.19 8.71-1.87 13.17-1.45 1.9.57 3.84.99 5.77 1.47 6.83 2.44 12.83 7.23 16.38 13.59 5.49 9.75 4.65 22.63-2.03 31.61-4.73 6.57-12.26 10.62-20.16 11.93-2.4.12-4.81.12-7.21-.02-4.6-.94-9.09-2.45-13.05-5.01-7.1 7.09-14.15 14.24-21.38 21.22-1.77 1.87-3.88 3.49-5.27 5.69-1.04 3.53-.15 7.26-.24 10.87-.01 7.81.11 15.62-.09 23.43-5.71-.07-11.42-.03-17.14-.04-.04-10.49.03-20.97-.02-31.45.19-2.09-.95-3.91-2.41-5.28-8.17-8.18-16.41-16.29-24.5-24.56-.94.34-1.86.69-2.79 1.06-2.05.93-4.09 1.91-6.17 2.76-1.92.42-3.83.82-5.73 1.32-3.77.41-7.53-.12-11.19-1.03-1.27-.47-2.56-.92-3.84-1.36-7.72-3.57-14.07-10.42-16.34-18.69-2.42-8.49-.95-18.08 4.29-25.24 3.11-4.62 7.83-7.78 12.73-10.25 2.66-.66 5.31-1.38 7.98-2.03 2.4-.03 4.8-.02 7.21.04 2.4.67 4.81 1.33 7.21 1.98 7.71 3.56 14.22 10.02 16.76 18.25 2.18 6.1 1.27 12.63.16 18.84 5.01 6.2 11.36 11.26 16.56 17.35.19-11.13.02-22.27.09-33.41-6.58-2.59-13.02-6.42-16.71-12.67-6.01-9.24-6.15-21.93-.27-31.26 3.14-5.07 7.87-9.05 13.28-11.5 1.32-.51 2.64-1.01 3.95-1.55ZM991.76 190.36c20.75-.06 41.52-.11 62.28-.08 8.71.25 17.48-.5 26.16.39 15.22 9.38 30 19.54 45.03 29.25 30.95 20.22 61.56 40.98 92.21 61.66 3.07 2.1 4.76 5.74 4.76 9.43-.42 16.7-.08 33.41-.22 50.11.09 1.93-1 3.59-1.83 5.24-10.72.66-21.47.15-32.2.31-52.64-.01-105.28.01-157.92-.01-5.46.3-10.03-3.39-13.53-7.16-11.35-10.97-21.57-23.92-25.94-39.33-4.1-14.73-2.76-30.19-2.76-45.29-.15-2.5 2.19-3.88 3.79-5.36 16.7-.11 33.42-.19 50.12-.01 2.83-.16 4.1 3.12 3.88 5.49-.63 10.02 3.29 19.62 8.43 28.01 2.84 5.09 7.69 9.31 13.67 9.94 6.39.68 12.88.31 19.3.18 3.02-.67 6.14-.53 9.22-.34 6.52 1.07 13.18.22 19.77.5 3.87-.23 8.04.75 11.66-1.09.96-2.54-1.65-4.2-3.43-5.36-43.3-28.33-86.6-56.67-129.9-85-2.84-1.82-5.85-4.21-6.31-7.79.4-1.88 2.44-2.54 3.76-3.69Z" opacity="1.00"/></g></svg>