<svg width="460" height="62" viewBox="0 0 460 62" fill="none" xmlns="http://www.w3.org/2000/svg">
<path d="M79.4493 0.36463C83.0733 0.107461 86.7093 0.189285 90.3381 0.247732C91.2265 0.195129 92.0278 0.73285 92.7419 1.30856C98.2614 5.74182 103.752 10.2306 109.266 14.6726C110.072 15.3009 111.109 16.014 111.125 17.3349C111.171 22.1101 111.123 26.8882 111.147 31.6634C111.125 32.2566 111.181 32.92 110.91 33.4489C110.651 33.9253 110.128 33.9136 109.731 34.1036C108.908 34.0743 108.083 34.0919 107.262 34.1825C107.18 34.352 107.013 34.691 106.93 34.8575C107.727 36.7834 109.731 37.1984 110.774 38.8495C111.155 39.4749 111.142 40.2844 111.147 41.0267C111.128 47.4588 111.157 53.8939 111.135 60.3261C111.157 61.0304 110.857 62.0152 110.15 61.948C106.088 61.9889 102.021 62.0036 97.9563 61.9334C97.143 61.2145 97.2713 59.9199 97.2253 58.8474C97.2204 51.2521 97.2228 43.6539 97.2228 36.0586C97.2107 32.7359 97.2906 29.4044 97.0171 26.0962C96.8985 24.9506 96.2109 24.0476 95.4218 23.469C92.4466 21.0025 89.423 18.6237 86.4091 16.2303C85.9782 15.9 85.4941 15.713 85.0172 15.5172C83.5477 15.4178 82.0759 15.3798 80.6089 15.5318C79.2024 15.8533 77.8105 16.2945 76.4935 16.9842C73.3441 18.7084 70.6473 21.7653 69.3401 25.6696C67.8247 29.9801 68.2701 35.1468 70.4222 39.0307C71.8166 41.7222 73.9904 43.6627 76.312 45.0742C76.709 45.2788 77.1133 45.4746 77.5151 45.682C77.8129 45.8194 78.1106 45.948 78.4108 46.0853C79.0644 46.2577 79.7132 46.4682 80.3644 46.661C82.7223 46.9153 85.1382 46.8744 87.4089 45.9684C87.651 45.8808 87.8931 45.7902 88.1352 45.6996C88.3724 45.571 88.6096 45.4395 88.8445 45.3021C89.5441 45.2086 90.4519 44.9924 90.8586 45.8925C92.6403 49.1275 94.3736 52.4035 96.1456 55.6503C96.47 56.2669 96.8742 56.9478 96.7145 57.7281C96.3054 58.4879 95.538 58.7363 94.8989 59.1104C94.4922 59.2974 94.0831 59.4815 93.6812 59.6832C93.444 59.7913 93.2067 59.8965 92.9671 59.9988C92.1731 60.3378 91.3621 60.6125 90.5535 60.8872C89.2633 61.2496 87.9633 61.5915 86.6415 61.7289C84.9833 62.0825 83.2863 61.948 81.6111 61.9626C80.2313 61.986 78.8635 61.7318 77.5079 61.4542C76.4935 61.2934 75.5131 60.9544 74.5206 60.6797C73.5499 60.3232 72.5864 59.9462 71.6374 59.5137C71.2501 59.3267 70.8628 59.1338 70.4803 58.9351C64.6486 55.8987 59.6424 50.428 56.8367 43.5136C54.641 38.1627 53.9172 31.9556 54.8177 26.0816C55.8562 19.1088 59.1292 12.7263 63.6778 8.28429C65.8687 6.10711 68.3306 4.342 70.9354 2.98601C71.2719 2.83405 71.606 2.67916 71.9424 2.52135C73.7944 1.63002 75.7455 1.10399 77.6943 0.639331C78.2825 0.598417 78.8708 0.519517 79.4493 0.36463ZM115.79 0.265266C121.98 0.113302 128.175 0.241888 134.368 0.198052H158.113C159.58 0.212664 161.052 0.139606 162.517 0.300338C163.047 0.627645 163.596 0.940336 164.034 1.44299C167.53 5.40574 170.336 10.4498 171.374 16.163C172.118 19.9154 171.943 23.7963 171.883 27.6129C171.868 28.0776 171.641 28.4721 171.478 28.8754C171.057 28.9923 170.638 29.1384 170.205 29.1326C166.322 29.1384 162.439 29.1092 158.556 29.1443C157.893 28.8871 157.409 28.2062 157.535 27.3207C157.75 23.6502 156.687 19.9008 154.63 17.1829C154.095 16.4524 153.354 15.9059 152.521 15.9702C145.423 15.9877 138.321 15.9789 131.223 15.976C130.717 15.976 130.213 16.0111 129.712 16.0578C129.245 16.8644 129.202 17.8668 129.245 18.8166C129.364 21.549 129.274 24.2814 129.24 27.0139C129.219 28.5715 130.172 29.7901 131.191 30.5792C143.576 40.3399 155.879 50.2585 168.23 60.0806C168.685 60.405 168.995 60.9164 169.244 61.4688L168.523 61.9217C162.793 62.0415 157.06 61.9393 151.33 61.9743C149.701 61.9743 148.072 61.9948 146.445 61.8867C145.506 61.3928 144.632 60.7499 143.782 60.0631C139.277 56.6322 134.835 53.0844 130.318 49.674C130.083 49.6565 129.85 49.639 129.618 49.6243C129.03 50.8605 129.557 52.4795 128.797 53.6105C128.255 53.815 127.674 53.7449 127.115 53.7654C123.476 53.7303 119.836 53.8063 116.199 53.7303C115.527 53.7332 115.185 52.836 115.209 52.1288C115.175 48.5255 115.214 44.9222 115.192 41.3218C115.139 40.3545 115.246 39.2177 116.12 38.8583C117.299 38.8261 118.618 39.1827 119.596 38.1627C119.005 36.459 117.451 35.857 116.296 34.8546C115.56 34.3257 115.171 33.2765 115.197 32.2654C115.195 22.2299 115.197 12.1974 115.197 2.16482C115.144 1.44299 115.367 0.770838 115.79 0.265266ZM259.426 0.265266C265.195 0.113302 270.968 0.230197 276.74 0.241886C277.911 0.180516 278.959 0.990019 279.744 1.97486C282.796 5.28592 284.973 9.68996 286.127 14.4271C286.302 14.9356 286.176 15.4675 286.067 15.9731C285.914 16.0549 285.614 16.2215 285.462 16.3062C278.19 16.3208 270.918 16.3092 263.645 16.3121C262.149 16.2215 260.617 16.5371 259.152 16.0783C259.002 15.5523 258.85 15.0175 258.869 14.4534C258.877 10.254 258.86 6.05743 258.877 1.86089C258.838 1.24134 259.133 0.732847 259.426 0.265266ZM358.717 0.274033C363.041 0.145448 367.372 0.162984 371.695 0.262345C371.969 0.69778 372.255 1.15952 372.262 1.73815C372.368 5.37944 372.18 9.03827 372.351 12.6737C372.349 13.6118 373.177 13.717 373.705 13.2874C379.057 9.16685 384.361 4.95277 389.757 0.919882C390.469 0.607186 391.188 0.23312 391.965 0.247732C398.305 0.180517 404.642 0.189288 410.983 0.209744C410.774 1.97779 410.135 3.70784 408.988 4.87387C407.852 5.98145 406.577 6.85232 405.376 7.84593C396.913 14.5996 388.45 21.3532 379.989 28.1097C378.89 29.0858 377.568 29.7492 376.728 31.0964C377.183 31.8153 377.779 32.3677 378.423 32.8294C386.968 39.6502 395.516 46.4682 404.064 53.2832C405.742 54.6713 407.523 55.8928 409.111 57.4271C410.041 58.6136 411.072 60.2034 410.733 61.9393C404.473 62.0065 398.213 61.9802 391.953 61.951C391.464 61.9685 390.987 61.8867 390.51 61.8224C384.639 57.5235 378.975 52.8214 373.114 48.5021C373.02 48.4992 372.833 48.4905 372.739 48.4875C371.896 49.9633 372.591 51.8424 371.998 53.4264C371.645 53.5871 371.294 53.7946 370.911 53.7595C367.185 53.7624 363.46 53.7537 359.737 53.7624C359.366 53.7215 358.931 53.8296 358.65 53.4731C358.192 53.0143 358.204 52.2136 358.182 51.5619C358.185 48.0492 358.185 44.5365 358.182 41.0267C358.166 40.3925 358.328 39.7876 358.475 39.1914C359.809 38.3907 361.516 39.5217 362.651 38.1423C361.852 36.0879 359.683 35.7284 358.565 34.0247C358.214 33.4314 358.182 32.6716 358.18 31.9702C358.192 22.04 358.178 12.1068 358.187 2.17651C358.146 1.46929 358.354 0.817596 358.717 0.274033ZM19.1593 1.01924C20.5077 0.633487 21.8731 0.320792 23.2578 0.215586C24.5384 0.0694667 25.8408 -0.149711 27.1214 0.148372C28.6876 0.203898 30.2272 0.545819 31.7572 0.94034C32.3987 1.15367 33.0281 1.40792 33.6696 1.61541C34.2506 1.86966 34.8292 2.13852 35.4102 2.39861C41.2564 5.34145 46.1464 10.9583 48.7948 17.9135C51.1817 24.0915 51.782 31.2367 50.5159 37.8764C48.7972 47.2543 43.1688 55.3902 35.8895 59.2215C35.4901 59.4231 35.0882 59.616 34.6912 59.8176C32.8804 60.6242 31.0067 61.197 29.0991 61.5564C28.2906 61.6441 27.4748 61.6441 26.6759 61.8253C25.9376 61.875 25.1968 61.8779 24.4585 61.8253C23.098 61.6061 21.7181 61.5769 20.3746 61.1853C19.7936 61.0275 19.2174 60.8463 18.6389 60.6885C17.4212 60.2443 16.2229 59.7183 15.0537 59.1133C14.7342 58.9029 14.407 58.7099 14.0732 58.5347C8.49089 55.1593 4.00031 49.224 1.73928 42.1927C-0.41281 35.5501 -0.567741 28.0045 1.27449 21.2305C3.51615 12.9017 8.86127 5.92885 15.533 2.50966C15.9397 2.30801 16.3561 2.12975 16.7652 1.9398C17.0702 1.80244 17.3776 1.67678 17.6802 1.53943C18.1765 1.37285 18.6679 1.19751 19.1593 1.01924ZM21.8319 4.53779C21.4978 4.61085 21.1638 4.67515 20.8297 4.73944C20.5102 4.84757 20.1906 4.95277 19.8711 5.04921C19.1279 5.3093 18.3895 5.58693 17.6585 5.89086C17.0944 6.19478 16.5304 6.49579 15.9591 6.77926C10.4227 10.0056 6.07493 16.0841 4.33922 23.2148C2.78506 29.3868 3.17723 36.2369 5.43826 42.0817C7.61698 47.7891 11.5193 52.4678 16.2229 55.1418C16.7289 55.3756 17.2227 55.6415 17.7238 55.8928C18.208 56.0974 18.697 56.2903 19.1836 56.4832C20.4254 56.9595 21.7133 57.1992 22.9963 57.4651C25.6737 57.7398 28.385 57.5908 30.9995 56.8046C31.5611 56.6001 32.1203 56.3926 32.6771 56.1792C33.4977 55.8344 34.3014 55.434 35.0906 54.9928C41.145 51.5268 45.7131 44.5803 47.1462 36.6811C48.3469 30.2226 47.4803 23.2264 44.6988 17.5161C42.0553 11.9986 37.7317 7.7115 32.7473 5.61323C32.5028 5.51971 32.2607 5.42328 32.021 5.32392C31.5151 5.16903 31.0116 5.00245 30.5081 4.84464C28.2301 4.30108 25.8625 3.83058 23.5483 4.28647C22.9721 4.32738 22.3984 4.40629 21.8319 4.53779ZM201.165 0.344172C204.965 0.145449 208.78 0.113303 212.584 0.320792C212.823 0.434765 213.068 0.542895 213.315 0.651023C219.296 5.30054 225.145 10.1985 231.076 14.9502C231.674 15.4354 232.361 15.9672 232.541 16.8761C232.688 17.7031 232.594 18.5565 232.608 19.3952C232.604 23.5917 232.606 27.7912 232.611 31.9878C232.591 32.4641 232.608 32.9784 232.403 33.4051C232.187 33.9399 231.626 33.899 231.229 34.0948C230.333 34.1328 229.396 33.9487 228.539 34.3169C228.345 34.7289 228.578 35.1819 228.733 35.5531C229.662 36.7162 230.943 37.3445 231.948 38.3965C232.841 39.4691 232.637 41.1144 232.611 42.4937C232.601 48.3414 232.606 54.1891 232.608 60.0368C232.601 60.6914 232.572 61.5418 232.015 61.8808C231.429 62.0153 230.827 61.9685 230.238 61.9802C226.644 61.951 223.046 62.0152 219.454 61.9422C219.086 61.5038 218.699 60.9924 218.757 60.3144C218.732 54.9606 218.757 49.6039 218.747 44.2501C218.735 43.461 218.558 42.6895 218.561 41.8976C218.57 36.7308 218.563 31.564 218.565 26.3943C218.616 25.3452 218.098 24.3866 217.384 23.8343C214.341 21.3649 211.267 18.9539 208.216 16.4962C206.464 14.9356 204.154 15.5026 202.131 15.5318C200.894 15.8182 199.666 16.1689 198.49 16.7124C194.851 18.4922 191.753 22.0867 190.513 26.6369C189.472 30.2782 189.799 34.4016 191.283 37.7975C192.767 41.2576 195.41 43.7883 198.313 45.3693C199.022 45.7171 199.741 46.0357 200.482 46.2841C202.523 46.9328 204.677 46.9065 206.759 46.5821C207.154 46.4652 207.558 46.3688 207.962 46.2899C209.11 46.0006 210.163 45.1736 211.356 45.2145C211.983 45.2145 212.358 45.91 212.671 46.4682C214.121 49.1947 215.6 51.9009 217.062 54.6158C217.476 55.4253 217.992 56.1851 218.224 57.1086C218.357 58.3389 217.123 58.6487 216.421 59.0841C214.184 60.2267 211.84 61.0187 209.456 61.5506C208.885 61.6003 208.318 61.6967 207.761 61.8311C205.488 62.0357 203.198 62.0357 200.927 61.8282C197.957 61.384 195.03 60.4956 192.266 59.1046C184.524 55.2295 178.155 46.9299 176.429 36.9032C175.306 30.6493 176.049 23.9483 178.462 18.2555C181.036 12.0366 185.497 7.15625 190.574 3.98839C191.29 3.57341 192.014 3.17304 192.755 2.81651C193.762 2.30509 194.808 1.91641 195.853 1.53943C197.596 0.969561 199.376 0.615953 201.165 0.344172ZM322.268 0.449378C324.579 0.0636228 326.932 0.253578 329.264 0.198052C330.716 0.198052 332.169 0.186362 333.624 0.265266C334.667 0.317869 335.507 1.17413 336.357 1.81706C342.009 6.37013 347.657 10.9378 353.285 15.5406C354.486 16.54 354.147 18.4717 354.191 19.9768C354.111 23.884 354.217 27.7912 354.186 31.7014C354.133 32.394 354.193 33.2415 353.702 33.7353C352.532 34.3958 351.157 33.785 350.01 34.5682C350.526 37.3679 354.162 37.3006 354.178 40.4247C354.195 46.7692 354.159 53.1078 354.191 59.4523C354.174 60.3378 354.186 61.8867 353.188 61.9422C349.121 62.0006 345.05 61.9919 340.983 61.9422C340.404 61.4249 340.189 60.595 340.215 59.7533C340.203 54.8759 340.208 49.9984 340.215 45.1209C339.954 38.8057 340.162 32.4758 340.077 26.1576C340.053 25.2663 339.639 24.448 339.032 23.96C335.836 21.3766 332.629 18.8166 329.421 16.2566C328.237 15.2688 326.741 15.4617 325.383 15.4295C324.245 15.3944 323.124 15.637 322.021 15.938C321.348 16.1689 320.682 16.4173 320.026 16.7008C316.136 18.6032 312.841 22.5835 311.805 27.5691C310.711 32.4816 312.093 37.9553 315.075 41.4943C316.327 43.0899 317.879 44.3085 319.537 45.2028C319.946 45.3986 320.355 45.5856 320.769 45.7902L321.275 45.9655C324.231 47.1169 327.501 47.0877 330.46 45.9567C330.585 45.9129 330.835 45.8282 330.961 45.7843C331.706 45.2992 332.544 45.1063 333.386 45.2671C334.679 47.1169 335.618 49.2737 336.754 51.2609C337.671 53.0289 338.685 54.7297 339.545 56.5416C339.881 57.1407 339.731 57.9794 339.199 58.3272C338.196 59.0373 337.083 59.4786 336.001 59.9696C335.681 60.0982 335.374 60.2268 335.064 60.3641C333.723 60.8551 332.353 61.2204 330.978 61.5506C330.406 61.5973 329.84 61.6967 329.285 61.8311C327.012 62.0357 324.722 62.0357 322.452 61.8282C320.236 61.4951 318.053 60.9106 315.927 60.0952C315.208 59.7825 314.504 59.4319 313.792 59.1075C306.426 55.4165 300.316 47.7686 298.224 38.379C296.697 31.64 297.403 24.2464 300.071 18.0597C303.027 11.0752 308.307 5.77104 314.272 2.82235C314.574 2.67916 314.872 2.53012 315.179 2.38107C315.908 2.08591 316.642 1.80829 317.378 1.52482C318.494 1.19167 319.622 0.919883 320.75 0.633489C321.253 0.580886 321.759 0.52536 322.268 0.449378Z" fill="#E60000"/>
<path d="M428.056 0.449346C430.768 0.0372893 433.52 0.265235 436.251 0.19802C437.711 0.274002 439.228 0.0139107 440.637 0.618844C446.75 5.41156 452.749 10.4147 458.822 15.2804C459.5 15.7626 459.992 16.6481 459.975 17.6213C459.992 22.3117 459.967 27.0051 459.984 31.6955C459.972 32.3969 460.006 33.259 459.495 33.7382C459.178 33.8931 458.854 33.9779 458.537 34.0918C457.636 34.2204 456.496 33.7324 455.796 34.6003C455.651 35.5998 456.605 36.082 457.145 36.6051C458.205 37.5724 459.854 38.265 459.963 40.1236C460.004 46.7575 459.965 53.3971 459.98 60.0338C460.026 60.7002 459.791 61.3051 459.537 61.8749C456.951 62.0912 454.354 61.9188 451.766 61.9743C450.221 61.9451 448.677 62.0298 447.137 61.9363C446.319 61.9422 446.053 60.7966 446.065 59.9929C446.05 55.9104 446.065 51.8307 446.06 47.7481C446.041 45.8983 446.147 44.0367 445.893 42.2015C445.864 36.833 445.869 31.4617 445.9 26.0962C445.876 25.0587 445.261 24.2346 444.566 23.7174C441.24 21.0872 437.97 18.3519 434.6 15.8094C434.338 15.713 434.079 15.6253 433.825 15.5435C431.889 15.3564 429.925 15.3301 428.025 15.8562C427.277 16.1046 426.543 16.4026 425.817 16.7183C422.036 18.5594 418.838 22.3818 417.71 27.1746C416.553 31.7744 417.625 36.9382 420.174 40.5708C421.513 42.5112 423.244 44.025 425.137 45.0888C427.981 46.6669 431.203 47.1841 434.288 46.5441C434.951 46.4272 435.604 46.2051 436.248 45.9596C436.374 45.9187 436.629 45.8311 436.754 45.7872C437.505 45.308 438.345 45.1268 439.192 45.2495C440.398 46.9153 441.228 48.9083 442.274 50.7173C443.225 52.4941 444.191 54.2592 445.135 56.0448C445.389 56.6 445.767 57.3306 445.38 57.9327C445.048 58.4411 444.499 58.6428 444.043 58.9409C443.218 59.3266 442.397 59.727 441.574 60.1128C441.451 60.1449 441.204 60.215 441.08 60.2472C439.684 60.8638 438.217 61.1794 436.769 61.5506C436.333 61.6061 435.905 61.6645 435.481 61.7259C432.516 62.1613 429.487 62.062 426.534 61.5418C425.662 61.3343 424.8 61.1034 423.939 60.8784C422.457 60.3845 420.993 59.8234 419.581 59.1045C415.357 56.9127 411.501 53.5695 408.646 49.1947C406.015 45.2524 404.183 40.5006 403.536 35.4887C402.73 29.3751 403.655 22.9576 406.124 17.5307C409.046 10.9144 414.086 5.89667 419.758 2.98598C421.184 2.2963 422.644 1.69136 424.14 1.24716C425.43 0.893547 426.727 0.557474 428.056 0.449346ZM23.9961 11.1453C25.4558 10.9378 26.9785 10.8413 28.3923 11.42C30.8324 12.5509 32.6771 15.3447 32.9385 18.5009C33.3815 22.3526 31.29 26.3358 28.2325 27.5311C27.9202 28.5919 28.0969 29.72 28.1066 30.8158C28.1236 33.0485 28.0872 35.2842 28.1284 37.5169C29.3775 35.9154 30.7404 34.4425 31.9605 32.8089C31.7402 31.301 31.3723 29.7755 31.6531 28.2325C32.0307 25.1523 33.9262 22.525 36.3422 21.4876C37.3807 21.1398 38.4507 20.9411 39.5304 21.0638C39.9903 21.2304 40.4599 21.3532 40.9272 21.4934C42.5806 22.2065 44.033 23.6063 44.8924 25.465C46.2214 28.3143 46.0181 32.0783 44.401 34.7026C43.256 36.6226 41.4331 37.8062 39.5207 38.189C38.9397 38.2241 38.3563 38.2241 37.7753 38.1832C36.6617 37.9085 35.5748 37.4672 34.6161 36.7191C32.8974 38.791 31.1907 40.8805 29.4405 42.9204C29.012 43.4669 28.5012 43.9403 28.1647 44.5832C27.9129 45.6148 28.1284 46.7049 28.1066 47.7598C28.1042 50.0422 28.1332 52.3246 28.0848 54.607C26.7025 54.5865 25.3203 54.5982 23.9356 54.5953C23.9259 51.5297 23.9428 48.4671 23.9307 45.4044C23.9767 44.7936 23.7008 44.2617 23.3473 43.8614C21.3695 41.4709 19.3748 39.1008 17.4164 36.684C17.1888 36.7834 16.9661 36.8856 16.741 36.9938C16.2447 37.2655 15.7509 37.5519 15.2473 37.8004C14.7825 37.9231 14.3202 38.04 13.8602 38.1861C12.9476 38.3059 12.0373 38.151 11.1513 37.8851C10.8439 37.7477 10.5316 37.6162 10.2217 37.4877C8.35289 36.4444 6.81568 34.4425 6.26616 32.0257C5.68033 29.5446 6.03619 26.742 7.30469 24.6496C8.05755 23.2995 9.20017 22.376 10.3864 21.6542C11.0303 21.4613 11.6718 21.2509 12.3182 21.0609C12.8992 21.0522 13.4801 21.0551 14.0636 21.0726C14.6445 21.2684 15.228 21.4613 15.809 21.6512C17.6754 22.6916 19.2513 24.5795 19.8662 26.9846C20.3939 28.7673 20.1737 30.6756 19.9049 32.4904C21.1178 34.3022 22.655 35.781 23.9138 37.5607C23.9598 34.3081 23.9186 31.0526 23.9356 27.797C22.3427 27.0401 20.7837 25.9209 19.8904 24.0944C18.4355 21.3941 18.4016 17.6856 19.8251 14.959C20.5852 13.4773 21.7302 12.3142 23.0399 11.5982C23.3594 11.4492 23.679 11.3031 23.9961 11.1453ZM237.692 16.2945C242.715 16.277 247.743 16.2624 252.769 16.2711C254.877 16.3442 257 16.125 259.102 16.3851C262.786 19.1263 266.364 22.0954 270.002 24.9331C277.495 30.8421 284.905 36.909 292.325 42.9525C293.068 43.5662 293.477 44.63 293.477 45.7083C293.375 50.5887 293.458 55.472 293.424 60.3524C293.446 60.9164 293.182 61.4015 292.981 61.8837C290.386 62.0766 287.783 61.9276 285.186 61.9743C272.443 61.9714 259.7 61.9772 246.957 61.9714C245.635 62.0591 244.528 60.9807 243.681 59.879C240.934 56.6731 238.459 52.8886 237.402 48.3852C236.409 44.0806 236.733 39.5625 236.733 35.1497C236.697 34.4191 237.264 34.0159 237.651 33.5833C241.694 33.5512 245.741 33.5278 249.784 33.5804C250.469 33.5337 250.777 34.4922 250.723 35.1848C250.571 38.113 251.52 40.9185 252.764 43.3704C253.452 44.8579 254.626 46.0912 256.073 46.2753C257.62 46.474 259.191 46.3659 260.745 46.3279C261.476 46.1321 262.232 46.173 262.977 46.2285C264.556 46.5412 266.168 46.2928 267.763 46.3746C268.7 46.3074 269.71 46.5938 270.586 46.0561C270.818 45.3138 270.186 44.8287 269.756 44.4897C259.274 36.2106 248.791 27.9285 238.309 19.6494C237.622 19.1175 236.893 18.4191 236.782 17.3729C236.879 16.8235 237.373 16.6306 237.692 16.2945Z" fill="#E60000"/>
</svg>
